<svg width="27" height="39" viewBox="0 0 27 39" fill="none" xmlns="http://www.w3.org/2000/svg">
<g id="figma">
<path id="vector" fill-rule="evenodd" clip-rule="evenodd" d="M13.5 19.6326C13.5 16.1376 16.3332 13.3044 19.8281 13.3044C23.323 13.3044 26.1562 16.1376 26.1562 19.6326C26.1562 23.1275 23.323 25.9607 19.8281 25.9607C16.3332 25.9607 13.5 23.1275 13.5 19.6326Z" fill="#1ABCFE"/>
<path id="vector_2" fill-rule="evenodd" clip-rule="evenodd" d="M0.84375 32.2888C0.84375 28.7939 3.67694 25.9607 7.17187 25.9607H13.5V32.2888C13.5 35.7837 10.6668 38.6169 7.17187 38.6169C3.67694 38.6169 0.84375 35.7837 0.84375 32.2888Z" fill="#0ACF83"/>
<path id="vector_3" fill-rule="evenodd" clip-rule="evenodd" d="M13.5 0.648193V13.3044H19.8281C23.323 13.3044 26.1562 10.4712 26.1562 6.97632C26.1562 3.48139 23.323 0.648193 19.8281 0.648193H13.5Z" fill="#FF7262"/>
<path id="vector_4" fill-rule="evenodd" clip-rule="evenodd" d="M0.84375 6.97632C0.84375 10.4712 3.67694 13.3044 7.17187 13.3044H13.5V0.648193H7.17187C3.67694 0.648193 0.84375 3.48139 0.84375 6.97632Z" fill="#F24E1E"/>
<path id="vector_5" fill-rule="evenodd" clip-rule="evenodd" d="M0.84375 19.6326C0.84375 23.1275 3.67694 25.9607 7.17187 25.9607H13.5V13.3044H7.17187C3.67694 13.3044 0.84375 16.1376 0.84375 19.6326Z" fill="#A259FF"/>
</g>
</svg>
