<svg width="45" height="46" viewBox="0 0 45 46" fill="none" xmlns="http://www.w3.org/2000/svg">
<g id="Component 97">
<ellipse id="bg" cx="22.5019" cy="22.6331" rx="19.6875" ry="19.6875" fill="#FF3366"/>
<g id="invision">
<path d="M15.9751 15.4038C17.3342 15.4038 18.436 14.302 18.436 12.9429C18.436 11.5837 17.3342 10.4819 15.9751 10.4819C14.616 10.4819 13.5142 11.5837 13.5142 12.9429C13.5142 14.302 14.616 15.4038 15.9751 15.4038Z" fill="white"/>
<path d="M10.8335 17.5132L9.97656 20.6553H12.7891C12.2251 22.9478 11.0444 27.77 10.8335 28.7192C10.5698 29.9058 10.5258 33.2896 14.0854 33.2896C16.5699 33.2896 18.1547 31.6845 19.0386 30.374L18.3701 33.0479H22.3691L24.4565 24.5988C24.7532 23.1931 25.4513 20.4795 27.9721 20.4795C30.9701 20.4795 29.8703 24.0296 29.3313 25.7694C29.3093 25.8403 29.2883 25.9082 29.2685 25.9727C28.8642 27.291 28.4336 28.8291 28.4336 29.8838C28.4336 31.0703 28.9829 33.2896 32.059 33.2896C35.1352 33.2896 36.4462 30.2427 36.7172 28.7192L35.1572 28.082C35.0473 28.895 34.0586 30.6528 33.1357 30.6528C31.8723 30.6528 32.507 28.5229 33.1842 26.2498C33.4846 25.2415 33.7934 24.2051 33.9487 23.314C34.3413 21.0608 33.9487 17.2275 30.0376 17.2275C27.6084 17.2275 25.701 19.3921 24.7935 20.8948L25.5552 17.5132H19.4687L18.6338 20.6553H21.4682C21.4682 20.6553 19.7862 27.5101 19.6775 27.725C18.5349 29.9827 16.8068 30.7405 15.5137 30.6528C14.4766 30.5825 14.5981 29.3345 14.7886 28.7192L17.6011 17.5132H10.8335Z" fill="white"/>
</g>
</g>
</svg>
