<svg width="41" height="41" viewBox="0 0 41 41" fill="none" xmlns="http://www.w3.org/2000/svg">
<g id="xd">
<rect id="frame" x="0.8125" y="0.945312" width="39.3749" height="39.375" fill="#FF26BE"/>
<rect id="bg" x="2.21875" y="2.35156" width="36.5624" height="36.5625" fill="#2E001F"/>
<g id="xd_2">
<path d="M21.3053 30.2046L16.515 20.6289L21.0899 11.0428C21.1761 10.8978 21.1244 10.7891 20.9865 10.7891H18.2112C18.045 10.7891 17.9742 10.9014 17.9009 11.0246L14.7292 18.2731L11.4713 11.0065C11.4023 10.8434 11.3334 10.8072 11.161 10.8072H8.19613C8.09271 10.8072 7.98928 10.9159 8.09271 11.0609L12.6607 20.6289L7.89436 30.2227C7.80817 30.3315 7.82541 30.4764 7.99779 30.4764H10.842C10.9799 30.4764 11.0661 30.4221 11.1523 30.2771L14.5051 22.7672L17.8405 30.259C17.9267 30.4402 18.0129 30.4764 18.2025 30.4764H21.2018C21.3397 30.4764 21.3915 30.3496 21.3053 30.2046Z" fill="#FF26BE"/>
<path fill-rule="evenodd" clip-rule="evenodd" d="M29.1054 15.7538C24.8649 15.7538 22.1931 19.0519 22.1931 23.2741C22.1931 28.2031 24.8315 30.4946 28.5721 30.4765C30.02 30.4765 31.5704 30.287 33.0183 29.5622C33.1217 29.5078 33.1562 29.4716 33.1562 29.3628C33.07 28.6924 33.07 28.0762 33.07 27.587V10.9517C33.07 10.8611 33.0356 10.8067 32.8977 10.8067H30.1741C30.0879 10.8067 30.0017 10.8792 30.0017 10.988V15.7901C29.657 15.7538 29.4673 15.7538 29.1054 15.7538ZM29.0019 18.4539C29.4156 18.4539 29.7604 18.5264 30.0017 18.6351V27.6051C29.6742 27.7501 29.226 27.8044 28.8123 27.8044C26.8645 27.8044 25.3131 26.4635 25.3131 23.1292C25.3131 20.2116 26.83 18.4539 29.0019 18.4539Z" fill="#FF26BE"/>
</g>
</g>
</svg>
